<?xml version="1.0" encoding="utf-8"?>
<!-- Generator: Adobe Illustrator 18.1.1, SVG Export Plug-In . SVG Version: 6.00 Build 0)  -->
<svg version="1.1" id="Layer_1" xmlns="http://www.w3.org/2000/svg" xmlns:xlink="http://www.w3.org/1999/xlink" x="0px" y="0px"
	 width="80px" height="65px" viewBox="0 0 80 65" enable-background="new 0 0 80 65" xml:space="preserve">
<path fill="#7AC144" d="M80,7.7c-2.9,1.3-6.1,2.2-9.4,2.6c3.4-2,6-5.2,7.2-9.1c-3.2,1.9-6.7,3.2-10.4,4C64.4,2,60.1,0,55.4,0
	C46.3,0,39,7.3,39,16.4c0,1.3,0.1,2.5,0.4,3.7C25.8,19.5,13.7,12.9,5.6,3c-1.4,2.4-2.2,5.2-2.2,8.3c0,5.7,2.9,10.7,7.3,13.7
	c-2.7-0.1-5.2-0.8-7.4-2.1c0,0.1,0,0.1,0,0.2c0,8,5.7,14.6,13.2,16.1c-1.4,0.4-2.8,0.6-4.3,0.6c-1.1,0-2.1-0.1-3.1-0.3
	c2.1,6.5,8.1,11.3,15.3,11.4c-5.6,4.4-12.7,7-20.4,7c-1.3,0-2.6-0.1-3.9-0.2C7.3,62.3,15.9,65,25.2,65c30.2,0,46.7-25,46.7-46.7
	c0-0.7,0-1.4,0-2.1C75,13.9,77.8,11,80,7.7z"/>
</svg>
